<?xml version="1.0" encoding="UTF-8" standalone="no"?>
<!DOCTYPE svg PUBLIC "-//W3C//DTD SVG 1.1//EN" "http://www.w3.org/Graphics/SVG/1.1/DTD/svg11.dtd">
<!-- 由 Microsoft Visio, SVG Export 生成 jhkgltfjmlhf.svg Page-3 -->
<svg xmlns="http://www.w3.org/2000/svg" xmlns:xlink="http://www.w3.org/1999/xlink" xmlns:ev="http://www.w3.org/2001/xml-events"
		xmlns:v="http://schemas.microsoft.com/visio/2003/SVGExtensions/" width="26.4288in" height="13.7036in"
		viewBox="0 0 1902.87 986.656" xml:space="preserve" color-interpolation-filters="sRGB" class="st23">
	<v:documentProperties v:langID="2052" v:metric="true" v:viewMarkup="false">
		<v:userDefs>
			<v:ud v:nameU="msvNoAutoConnect" v:val="VT0(1):26"/>
		</v:userDefs>
	</v:documentProperties>

	<style type="text/css">
	<![CDATA[
		.st1 {fill:#3f3f3f;stroke:none;stroke-linecap:round;stroke-linejoin:round;stroke-width:0.75}
		.st2 {fill:#dde2cd;stroke:#dac586;stroke-linecap:round;stroke-linejoin:round;stroke-width:30}
		.st3 {fill:#3f3f3f;stroke:#dac586;stroke-linecap:round;stroke-linejoin:round;stroke-width:6}
		.st4 {fill:#ee95ab;stroke:#dac586;stroke-linecap:round;stroke-linejoin:round;stroke-width:2}
		.st5 {fill:#a7d5ae;stroke:#dac586;stroke-linecap:round;stroke-linejoin:round;stroke-width:2}
		.st6 {fill:#97ebdf;stroke:#dac586;stroke-linecap:round;stroke-linejoin:round;stroke-width:2}
		.st7 {fill:#c4e8fe;stroke:#dac586;stroke-linecap:round;stroke-linejoin:round;stroke-width:2}
		.st8 {fill:none;stroke:none;stroke-linecap:round;stroke-linejoin:round;stroke-width:0.75}
		.st9 {fill:#ee95ab;font-family:华文中宋;font-size:12.5em}
		.st10 {fill:#97ebdf;font-family:华文中宋;font-size:12.5em}
		.st11 {fill:#a7d5ae;font-family:华文中宋;font-size:12.5em}
		.st12 {fill:#c4e8fe;font-family:华文中宋;font-size:12.5em}
		.st13 {fill:#e5b9b5;fill-opacity:0.8;stroke:none;stroke-linecap:round;stroke-linejoin:round;stroke-width:0.24}
		.st14 {fill:#d9958f;fill-opacity:0.8;stroke:none;stroke-linecap:round;stroke-linejoin:round;stroke-width:0.24}
		.st15 {fill:#789440;fill-opacity:0.6;stroke:none;stroke-linecap:round;stroke-linejoin:round;stroke-width:0.24}
		.st16 {fill:#7e649e;fill-opacity:0.9;stroke:none;stroke-linecap:round;stroke-linejoin:round;stroke-width:0.24}
		.st17 {fill:#c05046;fill-opacity:0.8;stroke:none;stroke-linecap:round;stroke-linejoin:round;stroke-width:0.24}
		.st18 {fill:#0070c0;fill-opacity:0.7;stroke:none;stroke-linecap:round;stroke-linejoin:round;stroke-width:0.24}
		.st19 {fill:#ffc000;fill-opacity:0.5;stroke:none;stroke-linecap:round;stroke-linejoin:round;stroke-width:0.24}
		.st20 {fill:#dbeef3;fill-opacity:0.8;stroke:none;stroke-linecap:round;stroke-linejoin:round;stroke-width:0.24}
		.st21 {fill:#f9c499;fill-opacity:0.8;stroke:none;stroke-linecap:round;stroke-linejoin:round;stroke-width:0.24}
		.st22 {fill:#b7dde8;fill-opacity:0.8;stroke:none;stroke-linecap:round;stroke-linejoin:round;stroke-width:0.24}
		.st23 {fill:none;fill-rule:evenodd;font-size:12px;overflow:visible;stroke-linecap:square;stroke-miterlimit:3}
	]]>
	</style>

	<g v:mID="4" v:index="1" v:groupContext="backgroundPage">
		<v:userDefs>
			<v:ud v:nameU="msvVisioCreated" v:prompt="" v:val="VT0(0):26"/>
		</v:userDefs>
		<title>背景-1</title>
		<v:pageProperties width="26.4288" height="13.7036" v:drawingScale="0.0393701" v:pageScale="0.0393701" v:drawingUnits="24"
				v:shadowOffsetX="8.50394" v:shadowOffsetY="-8.50394"/>
		<g id="shape1-1" v:mID="1" v:groupContext="shape">
			<title>实心</title>
			<v:userDefs>
				<v:ud v:nameU="Background" v:val="VT0(0):26"/>
				<v:ud v:nameU="visVersion" v:val="VT0(15):26"/>
				<v:ud v:nameU="msvShapeCategories" v:prompt="" v:val="VT4(DoNotContain)"/>
				<v:ud v:nameU="msvVisioCreated" v:prompt="" v:val="VT0(0):26"/>
			</v:userDefs>
			<rect x="0" y="0" width="1902.87" height="986.656" class="st1"/>
		</g>
	</g>
	<g v:mID="11" v:index="4" v:groupContext="foregroundPage">
		<title>页-3</title>
		<v:pageProperties v:drawingScale="0.0393701" v:pageScale="0.0393701" v:drawingUnits="24" v:shadowOffsetX="8.50394"
				v:shadowOffsetY="-8.50394"/>
		<g id="group77-3" transform="translate(492.22,-47.0363)" v:mID="77" v:groupContext="group">
			<title>工作表.77</title>
			<g id="shape9-4" v:mID="9" v:groupContext="shape" transform="translate(4.21731E-05,-1.36231E-05)">
				<title>框.9</title>
				<v:userDefs>
					<v:ud v:nameU="visVersion" v:val="VT0(15):26"/>
				</v:userDefs>
				<rect x="0" y="79.5692" width="907.087" height="907.087" class="st2"/>
			</g>
			<g id="shape5-6" v:mID="5" v:groupContext="shape" transform="translate(7.08664,-446.457)">
				<title>框</title>
				<v:userDefs>
					<v:ud v:nameU="visVersion" v:val="VT0(15):26"/>
				</v:userDefs>
				<rect x="0" y="533.113" width="453.543" height="453.543" class="st3"/>
			</g>
			<g id="shape6-8" v:mID="6" v:groupContext="shape" transform="translate(453.543,-453.543)">
				<title>框.6</title>
				<v:userDefs>
					<v:ud v:nameU="visVersion" v:val="VT0(15):26"/>
				</v:userDefs>
				<rect x="0" y="533.113" width="453.543" height="453.543" class="st3"/>
			</g>
			<g id="shape7-10" v:mID="7" v:groupContext="shape" transform="translate(4.21731E-05,1.13687E-13)">
				<title>框.7</title>
				<v:userDefs>
					<v:ud v:nameU="visVersion" v:val="VT0(15):26"/>
				</v:userDefs>
				<rect x="0" y="533.113" width="453.543" height="453.543" class="st3"/>
			</g>
			<g id="shape8-12" v:mID="8" v:groupContext="shape" transform="translate(453.543,1.13687E-13)">
				<title>框.8</title>
				<v:userDefs>
					<v:ud v:nameU="visVersion" v:val="VT0(15):26"/>
				</v:userDefs>
				<rect x="0" y="533.113" width="453.543" height="453.543" class="st3"/>
			</g>
			<g id="shape10-14" v:mID="10" v:groupContext="shape" transform="translate(4.21731E-05,-793.701)">
				<title>框.10</title>
				<v:userDefs>
					<v:ud v:nameU="visVersion" v:val="VT0(15):26"/>
				</v:userDefs>
				<rect x="0" y="873.27" width="113.386" height="113.386" class="st4"/>
			</g>
			<g id="shape14-16" v:mID="14" v:groupContext="shape" transform="translate(113.386,-793.701)">
				<title>框.14</title>
				<v:userDefs>
					<v:ud v:nameU="visVersion" v:val="VT0(15):26"/>
				</v:userDefs>
				<rect x="0" y="873.27" width="113.386" height="113.386" class="st4"/>
			</g>
			<g id="shape15-18" v:mID="15" v:groupContext="shape" transform="translate(226.772,-793.701)">
				<title>框.15</title>
				<v:userDefs>
					<v:ud v:nameU="visVersion" v:val="VT0(15):26"/>
				</v:userDefs>
				<rect x="0" y="873.27" width="113.386" height="113.386" class="st4"/>
			</g>
			<g id="shape16-20" v:mID="16" v:groupContext="shape" transform="translate(340.158,-793.701)">
				<title>框.16</title>
				<v:userDefs>
					<v:ud v:nameU="visVersion" v:val="VT0(15):26"/>
				</v:userDefs>
				<rect x="0" y="873.27" width="113.386" height="113.386" class="st4"/>
			</g>
			<g id="shape17-22" v:mID="17" v:groupContext="shape" transform="translate(4.77689E-06,-680.315)">
				<title>框.17</title>
				<v:userDefs>
					<v:ud v:nameU="visVersion" v:val="VT0(15):26"/>
				</v:userDefs>
				<rect x="0" y="873.27" width="113.386" height="113.386" class="st4"/>
			</g>
			<g id="shape18-24" v:mID="18" v:groupContext="shape" transform="translate(113.386,-680.315)">
				<title>框.18</title>
				<v:userDefs>
					<v:ud v:nameU="visVersion" v:val="VT0(15):26"/>
				</v:userDefs>
				<rect x="0" y="873.27" width="113.386" height="113.386" class="st4"/>
			</g>
			<g id="shape19-26" v:mID="19" v:groupContext="shape" transform="translate(226.772,-680.315)">
				<title>框.19</title>
				<v:userDefs>
					<v:ud v:nameU="visVersion" v:val="VT0(15):26"/>
				</v:userDefs>
				<rect x="0" y="873.27" width="113.386" height="113.386" class="st4"/>
			</g>
			<g id="shape20-28" v:mID="20" v:groupContext="shape" transform="translate(340.158,-680.315)">
				<title>框.20</title>
				<v:userDefs>
					<v:ud v:nameU="visVersion" v:val="VT0(15):26"/>
				</v:userDefs>
				<rect x="0" y="873.27" width="113.386" height="113.386" class="st4"/>
			</g>
			<g id="shape21-30" v:mID="21" v:groupContext="shape" transform="translate(-3.9968E-14,-566.929)">
				<title>框.21</title>
				<v:userDefs>
					<v:ud v:nameU="visVersion" v:val="VT0(15):26"/>
				</v:userDefs>
				<rect x="0" y="873.27" width="113.386" height="113.386" class="st4"/>
			</g>
			<g id="shape22-32" v:mID="22" v:groupContext="shape" transform="translate(113.386,-566.929)">
				<title>框.22</title>
				<v:userDefs>
					<v:ud v:nameU="visVersion" v:val="VT0(15):26"/>
				</v:userDefs>
				<rect x="0" y="873.27" width="113.386" height="113.386" class="st4"/>
			</g>
			<g id="shape23-34" v:mID="23" v:groupContext="shape" transform="translate(226.772,-566.929)">
				<title>框.23</title>
				<v:userDefs>
					<v:ud v:nameU="visVersion" v:val="VT0(15):26"/>
				</v:userDefs>
				<rect x="0" y="873.27" width="113.386" height="113.386" class="st4"/>
			</g>
			<g id="shape24-36" v:mID="24" v:groupContext="shape" transform="translate(340.158,-566.929)">
				<title>框.24</title>
				<v:userDefs>
					<v:ud v:nameU="visVersion" v:val="VT0(15):26"/>
				</v:userDefs>
				<rect x="0" y="873.27" width="113.386" height="113.386" class="st4"/>
			</g>
			<g id="shape25-38" v:mID="25" v:groupContext="shape" transform="translate(2.1148E-05,-453.543)">
				<title>框.25</title>
				<v:userDefs>
					<v:ud v:nameU="visVersion" v:val="VT0(15):26"/>
				</v:userDefs>
				<rect x="0" y="873.27" width="113.386" height="113.386" class="st4"/>
			</g>
			<g id="shape26-40" v:mID="26" v:groupContext="shape" transform="translate(113.386,-453.543)">
				<title>框.26</title>
				<v:userDefs>
					<v:ud v:nameU="visVersion" v:val="VT0(15):26"/>
				</v:userDefs>
				<rect x="0" y="873.27" width="113.386" height="113.386" class="st4"/>
			</g>
			<g id="shape27-42" v:mID="27" v:groupContext="shape" transform="translate(226.772,-453.543)">
				<title>框.27</title>
				<v:userDefs>
					<v:ud v:nameU="visVersion" v:val="VT0(15):26"/>
				</v:userDefs>
				<rect x="0" y="873.27" width="113.386" height="113.386" class="st4"/>
			</g>
			<g id="shape28-44" v:mID="28" v:groupContext="shape" transform="translate(340.158,-453.543)">
				<title>框.28</title>
				<v:userDefs>
					<v:ud v:nameU="visVersion" v:val="VT0(15):26"/>
				</v:userDefs>
				<rect x="0" y="873.27" width="113.386" height="113.386" class="st4"/>
			</g>
			<g id="shape29-46" v:mID="29" v:groupContext="shape" transform="translate(453.543,-793.701)">
				<title>框.29</title>
				<v:userDefs>
					<v:ud v:nameU="visVersion" v:val="VT0(15):26"/>
				</v:userDefs>
				<rect x="0" y="873.27" width="113.386" height="113.386" class="st5"/>
			</g>
			<g id="shape30-48" v:mID="30" v:groupContext="shape" transform="translate(566.929,-793.701)">
				<title>框.30</title>
				<v:userDefs>
					<v:ud v:nameU="visVersion" v:val="VT0(15):26"/>
				</v:userDefs>
				<rect x="0" y="873.27" width="113.386" height="113.386" class="st5"/>
			</g>
			<g id="shape31-50" v:mID="31" v:groupContext="shape" transform="translate(680.315,-793.701)">
				<title>框.31</title>
				<v:userDefs>
					<v:ud v:nameU="visVersion" v:val="VT0(15):26"/>
				</v:userDefs>
				<rect x="0" y="873.27" width="113.386" height="113.386" class="st5"/>
			</g>
			<g id="shape32-52" v:mID="32" v:groupContext="shape" transform="translate(793.701,-793.701)">
				<title>框.32</title>
				<v:userDefs>
					<v:ud v:nameU="visVersion" v:val="VT0(15):26"/>
				</v:userDefs>
				<rect x="0" y="873.27" width="113.386" height="113.386" class="st5"/>
			</g>
			<g id="shape33-54" v:mID="33" v:groupContext="shape" transform="translate(453.543,-680.315)">
				<title>框.33</title>
				<v:userDefs>
					<v:ud v:nameU="visVersion" v:val="VT0(15):26"/>
				</v:userDefs>
				<rect x="0" y="873.27" width="113.386" height="113.386" class="st5"/>
			</g>
			<g id="shape34-56" v:mID="34" v:groupContext="shape" transform="translate(566.929,-680.315)">
				<title>框.34</title>
				<v:userDefs>
					<v:ud v:nameU="visVersion" v:val="VT0(15):26"/>
				</v:userDefs>
				<rect x="0" y="873.27" width="113.386" height="113.386" class="st5"/>
			</g>
			<g id="shape35-58" v:mID="35" v:groupContext="shape" transform="translate(680.315,-680.315)">
				<title>框.35</title>
				<v:userDefs>
					<v:ud v:nameU="visVersion" v:val="VT0(15):26"/>
				</v:userDefs>
				<rect x="0" y="873.27" width="113.386" height="113.386" class="st5"/>
			</g>
			<g id="shape36-60" v:mID="36" v:groupContext="shape" transform="translate(793.701,-680.315)">
				<title>框.36</title>
				<v:userDefs>
					<v:ud v:nameU="visVersion" v:val="VT0(15):26"/>
				</v:userDefs>
				<rect x="0" y="873.27" width="113.386" height="113.386" class="st5"/>
			</g>
			<g id="shape37-62" v:mID="37" v:groupContext="shape" transform="translate(453.543,-566.929)">
				<title>框.37</title>
				<v:userDefs>
					<v:ud v:nameU="visVersion" v:val="VT0(15):26"/>
				</v:userDefs>
				<rect x="0" y="873.27" width="113.386" height="113.386" class="st5"/>
			</g>
			<g id="shape38-64" v:mID="38" v:groupContext="shape" transform="translate(566.929,-566.929)">
				<title>框.38</title>
				<v:userDefs>
					<v:ud v:nameU="visVersion" v:val="VT0(15):26"/>
				</v:userDefs>
				<rect x="0" y="873.27" width="113.386" height="113.386" class="st5"/>
			</g>
			<g id="shape39-66" v:mID="39" v:groupContext="shape" transform="translate(680.315,-566.929)">
				<title>框.39</title>
				<v:userDefs>
					<v:ud v:nameU="visVersion" v:val="VT0(15):26"/>
				</v:userDefs>
				<rect x="0" y="873.27" width="113.386" height="113.386" class="st5"/>
			</g>
			<g id="shape40-68" v:mID="40" v:groupContext="shape" transform="translate(793.701,-566.929)">
				<title>框.40</title>
				<v:userDefs>
					<v:ud v:nameU="visVersion" v:val="VT0(15):26"/>
				</v:userDefs>
				<rect x="0" y="873.27" width="113.386" height="113.386" class="st5"/>
			</g>
			<g id="shape41-70" v:mID="41" v:groupContext="shape" transform="translate(453.543,-453.543)">
				<title>框.41</title>
				<v:userDefs>
					<v:ud v:nameU="visVersion" v:val="VT0(15):26"/>
				</v:userDefs>
				<rect x="0" y="873.27" width="113.386" height="113.386" class="st5"/>
			</g>
			<g id="shape42-72" v:mID="42" v:groupContext="shape" transform="translate(566.929,-453.543)">
				<title>框.42</title>
				<v:userDefs>
					<v:ud v:nameU="visVersion" v:val="VT0(15):26"/>
				</v:userDefs>
				<rect x="0" y="873.27" width="113.386" height="113.386" class="st5"/>
			</g>
			<g id="shape43-74" v:mID="43" v:groupContext="shape" transform="translate(680.315,-453.543)">
				<title>框.43</title>
				<v:userDefs>
					<v:ud v:nameU="visVersion" v:val="VT0(15):26"/>
				</v:userDefs>
				<rect x="0" y="873.27" width="113.386" height="113.386" class="st5"/>
			</g>
			<g id="shape44-76" v:mID="44" v:groupContext="shape" transform="translate(793.701,-453.543)">
				<title>框.44</title>
				<v:userDefs>
					<v:ud v:nameU="visVersion" v:val="VT0(15):26"/>
				</v:userDefs>
				<rect x="0" y="873.27" width="113.386" height="113.386" class="st5"/>
			</g>
			<g id="shape45-78" v:mID="45" v:groupContext="shape" transform="translate(6.56606E-05,-340.158)">
				<title>框.45</title>
				<v:userDefs>
					<v:ud v:nameU="visVersion" v:val="VT0(15):26"/>
				</v:userDefs>
				<rect x="0" y="873.27" width="113.386" height="113.386" class="st6"/>
			</g>
			<g id="shape46-80" v:mID="46" v:groupContext="shape" transform="translate(113.386,-340.158)">
				<title>框.46</title>
				<v:userDefs>
					<v:ud v:nameU="visVersion" v:val="VT0(15):26"/>
				</v:userDefs>
				<rect x="0" y="873.27" width="113.386" height="113.386" class="st6"/>
			</g>
			<g id="shape47-82" v:mID="47" v:groupContext="shape" transform="translate(226.772,-340.158)">
				<title>框.47</title>
				<v:userDefs>
					<v:ud v:nameU="visVersion" v:val="VT0(15):26"/>
				</v:userDefs>
				<rect x="0" y="873.27" width="113.386" height="113.386" class="st6"/>
			</g>
			<g id="shape48-84" v:mID="48" v:groupContext="shape" transform="translate(340.158,-340.158)">
				<title>框.48</title>
				<v:userDefs>
					<v:ud v:nameU="visVersion" v:val="VT0(15):26"/>
				</v:userDefs>
				<rect x="0" y="873.27" width="113.386" height="113.386" class="st6"/>
			</g>
			<g id="shape49-86" v:mID="49" v:groupContext="shape" transform="translate(2.82644E-05,-226.772)">
				<title>框.49</title>
				<v:userDefs>
					<v:ud v:nameU="visVersion" v:val="VT0(15):26"/>
				</v:userDefs>
				<rect x="0" y="873.27" width="113.386" height="113.386" class="st6"/>
			</g>
			<g id="shape50-88" v:mID="50" v:groupContext="shape" transform="translate(113.386,-226.772)">
				<title>框.50</title>
				<v:userDefs>
					<v:ud v:nameU="visVersion" v:val="VT0(15):26"/>
				</v:userDefs>
				<rect x="0" y="873.27" width="113.386" height="113.386" class="st6"/>
			</g>
			<g id="shape51-90" v:mID="51" v:groupContext="shape" transform="translate(226.772,-226.772)">
				<title>框.51</title>
				<v:userDefs>
					<v:ud v:nameU="visVersion" v:val="VT0(15):26"/>
				</v:userDefs>
				<rect x="0" y="873.27" width="113.386" height="113.386" class="st6"/>
			</g>
			<g id="shape52-92" v:mID="52" v:groupContext="shape" transform="translate(340.158,-226.772)">
				<title>框.52</title>
				<v:userDefs>
					<v:ud v:nameU="visVersion" v:val="VT0(15):26"/>
				</v:userDefs>
				<rect x="0" y="873.27" width="113.386" height="113.386" class="st6"/>
			</g>
			<g id="shape53-94" v:mID="53" v:groupContext="shape" transform="translate(2.34875E-05,-113.386)">
				<title>框.53</title>
				<v:userDefs>
					<v:ud v:nameU="visVersion" v:val="VT0(15):26"/>
				</v:userDefs>
				<rect x="0" y="873.27" width="113.386" height="113.386" class="st6"/>
			</g>
			<g id="shape54-96" v:mID="54" v:groupContext="shape" transform="translate(113.386,-113.386)">
				<title>框.54</title>
				<v:userDefs>
					<v:ud v:nameU="visVersion" v:val="VT0(15):26"/>
				</v:userDefs>
				<rect x="0" y="873.27" width="113.386" height="113.386" class="st6"/>
			</g>
			<g id="shape55-98" v:mID="55" v:groupContext="shape" transform="translate(226.772,-113.386)">
				<title>框.55</title>
				<v:userDefs>
					<v:ud v:nameU="visVersion" v:val="VT0(15):26"/>
				</v:userDefs>
				<rect x="0" y="873.27" width="113.386" height="113.386" class="st6"/>
			</g>
			<g id="shape56-100" v:mID="56" v:groupContext="shape" transform="translate(340.158,-113.386)">
				<title>框.56</title>
				<v:userDefs>
					<v:ud v:nameU="visVersion" v:val="VT0(15):26"/>
				</v:userDefs>
				<rect x="0" y="873.27" width="113.386" height="113.386" class="st6"/>
			</g>
			<g id="shape57-102" v:mID="57" v:groupContext="shape" transform="translate(4.46355E-05,-0.00017374)">
				<title>框.57</title>
				<v:userDefs>
					<v:ud v:nameU="visVersion" v:val="VT0(15):26"/>
				</v:userDefs>
				<rect x="0" y="873.27" width="113.386" height="113.386" class="st6"/>
			</g>
			<g id="shape58-104" v:mID="58" v:groupContext="shape" transform="translate(113.386,-0.00017374)">
				<title>框.58</title>
				<v:userDefs>
					<v:ud v:nameU="visVersion" v:val="VT0(15):26"/>
				</v:userDefs>
				<rect x="0" y="873.27" width="113.386" height="113.386" class="st6"/>
			</g>
			<g id="shape59-106" v:mID="59" v:groupContext="shape" transform="translate(226.772,-0.00017374)">
				<title>框.59</title>
				<v:userDefs>
					<v:ud v:nameU="visVersion" v:val="VT0(15):26"/>
				</v:userDefs>
				<rect x="0" y="873.27" width="113.386" height="113.386" class="st6"/>
			</g>
			<g id="shape60-108" v:mID="60" v:groupContext="shape" transform="translate(340.158,-0.00017374)">
				<title>框.60</title>
				<v:userDefs>
					<v:ud v:nameU="visVersion" v:val="VT0(15):26"/>
				</v:userDefs>
				<rect x="0" y="873.27" width="113.386" height="113.386" class="st6"/>
			</g>
			<g id="shape61-110" v:mID="61" v:groupContext="shape" transform="translate(453.543,-340.158)">
				<title>框.61</title>
				<v:userDefs>
					<v:ud v:nameU="visVersion" v:val="VT0(15):26"/>
				</v:userDefs>
				<rect x="0" y="873.27" width="113.386" height="113.386" class="st7"/>
			</g>
			<g id="shape62-112" v:mID="62" v:groupContext="shape" transform="translate(566.929,-340.158)">
				<title>框.62</title>
				<v:userDefs>
					<v:ud v:nameU="visVersion" v:val="VT0(15):26"/>
				</v:userDefs>
				<rect x="0" y="873.27" width="113.386" height="113.386" class="st7"/>
			</g>
			<g id="shape63-114" v:mID="63" v:groupContext="shape" transform="translate(680.315,-340.158)">
				<title>框.63</title>
				<v:userDefs>
					<v:ud v:nameU="visVersion" v:val="VT0(15):26"/>
				</v:userDefs>
				<rect x="0" y="873.27" width="113.386" height="113.386" class="st7"/>
			</g>
			<g id="shape64-116" v:mID="64" v:groupContext="shape" transform="translate(793.701,-340.158)">
				<title>框.64</title>
				<v:userDefs>
					<v:ud v:nameU="visVersion" v:val="VT0(15):26"/>
				</v:userDefs>
				<rect x="0" y="873.27" width="113.386" height="113.386" class="st7"/>
			</g>
			<g id="shape65-118" v:mID="65" v:groupContext="shape" transform="translate(453.543,-226.772)">
				<title>框.65</title>
				<v:userDefs>
					<v:ud v:nameU="visVersion" v:val="VT0(15):26"/>
				</v:userDefs>
				<rect x="0" y="873.27" width="113.386" height="113.386" class="st7"/>
			</g>
			<g id="shape66-120" v:mID="66" v:groupContext="shape" transform="translate(566.929,-226.772)">
				<title>框.66</title>
				<v:userDefs>
					<v:ud v:nameU="visVersion" v:val="VT0(15):26"/>
				</v:userDefs>
				<rect x="0" y="873.27" width="113.386" height="113.386" class="st7"/>
			</g>
			<g id="shape67-122" v:mID="67" v:groupContext="shape" transform="translate(680.315,-226.772)">
				<title>框.67</title>
				<v:userDefs>
					<v:ud v:nameU="visVersion" v:val="VT0(15):26"/>
				</v:userDefs>
				<rect x="0" y="873.27" width="113.386" height="113.386" class="st7"/>
			</g>
			<g id="shape68-124" v:mID="68" v:groupContext="shape" transform="translate(793.701,-226.772)">
				<title>框.68</title>
				<v:userDefs>
					<v:ud v:nameU="visVersion" v:val="VT0(15):26"/>
				</v:userDefs>
				<rect x="0" y="873.27" width="113.386" height="113.386" class="st7"/>
			</g>
			<g id="shape69-126" v:mID="69" v:groupContext="shape" transform="translate(453.543,-113.386)">
				<title>框.69</title>
				<v:userDefs>
					<v:ud v:nameU="visVersion" v:val="VT0(15):26"/>
				</v:userDefs>
				<rect x="0" y="873.27" width="113.386" height="113.386" class="st7"/>
			</g>
			<g id="shape70-128" v:mID="70" v:groupContext="shape" transform="translate(566.929,-113.386)">
				<title>框.70</title>
				<v:userDefs>
					<v:ud v:nameU="visVersion" v:val="VT0(15):26"/>
				</v:userDefs>
				<rect x="0" y="873.27" width="113.386" height="113.386" class="st7"/>
			</g>
			<g id="shape71-130" v:mID="71" v:groupContext="shape" transform="translate(680.315,-113.386)">
				<title>框.71</title>
				<v:userDefs>
					<v:ud v:nameU="visVersion" v:val="VT0(15):26"/>
				</v:userDefs>
				<rect x="0" y="873.27" width="113.386" height="113.386" class="st7"/>
			</g>
			<g id="shape72-132" v:mID="72" v:groupContext="shape" transform="translate(793.701,-113.386)">
				<title>框.72</title>
				<v:userDefs>
					<v:ud v:nameU="visVersion" v:val="VT0(15):26"/>
				</v:userDefs>
				<rect x="0" y="873.27" width="113.386" height="113.386" class="st7"/>
			</g>
			<g id="shape73-134" v:mID="73" v:groupContext="shape" transform="translate(453.543,-0.00017374)">
				<title>框.73</title>
				<v:userDefs>
					<v:ud v:nameU="visVersion" v:val="VT0(15):26"/>
				</v:userDefs>
				<rect x="0" y="873.27" width="113.386" height="113.386" class="st7"/>
			</g>
			<g id="shape74-136" v:mID="74" v:groupContext="shape" transform="translate(566.929,-0.00017374)">
				<title>框.74</title>
				<v:userDefs>
					<v:ud v:nameU="visVersion" v:val="VT0(15):26"/>
				</v:userDefs>
				<rect x="0" y="873.27" width="113.386" height="113.386" class="st7"/>
			</g>
			<g id="shape75-138" v:mID="75" v:groupContext="shape" transform="translate(680.315,-0.00017374)">
				<title>框.75</title>
				<v:userDefs>
					<v:ud v:nameU="visVersion" v:val="VT0(15):26"/>
				</v:userDefs>
				<rect x="0" y="873.27" width="113.386" height="113.386" class="st7"/>
			</g>
			<g id="shape76-140" v:mID="76" v:groupContext="shape" transform="translate(793.701,-0.00017374)">
				<title>框.76</title>
				<v:userDefs>
					<v:ud v:nameU="visVersion" v:val="VT0(15):26"/>
				</v:userDefs>
				<rect x="0" y="873.27" width="113.386" height="113.386" class="st7"/>
			</g>
		</g>
		<g id="shape121-142" v:mID="121" v:groupContext="shape" transform="translate(-70.4911,-582.943)">
			<title>工作表.121</title>
			<desc>Tile1</desc>
			<v:textBlock v:margins="rect(4,4,4,4)" v:tabSpace="42.5197"/>
			<v:textRect cx="300.548" cy="862.212" width="601.1" height="248.889"/>
			<rect x="0" y="737.767" width="601.096" height="248.889" class="st8"/>
			<text x="123.55" y="907.21" class="st9" v:langID="2052"><v:paragraph v:horizAlign="1"/><v:tabList/>Tile1</text>		</g>
		<g id="shape124-145" v:mID="124" v:groupContext="shape" transform="translate(-70.4911,-118.341)">
			<title>工作表.124</title>
			<desc>Tile3</desc>
			<v:textBlock v:margins="rect(4,4,4,4)" v:tabSpace="42.5197"/>
			<v:textRect cx="300.548" cy="862.212" width="601.1" height="248.889"/>
			<rect x="0" y="737.767" width="601.096" height="248.889" class="st8"/>
			<text x="123.55" y="907.21" class="st10" v:langID="2052"><v:paragraph v:horizAlign="1"/><v:tabList/>Tile3</text>		</g>
		<g id="shape125-148" v:mID="125" v:groupContext="shape" transform="translate(1358.09,-582.943)">
			<title>工作表.125</title>
			<desc>Tile2</desc>
			<v:textBlock v:margins="rect(4,4,4,4)" v:tabSpace="42.5197"/>
			<v:textRect cx="300.548" cy="862.212" width="601.1" height="248.889"/>
			<rect x="0" y="737.767" width="601.096" height="248.889" class="st8"/>
			<text x="123.55" y="907.21" class="st11" v:langID="2052"><v:paragraph v:horizAlign="1"/><v:tabList/>Tile2</text>		</g>
		<g id="shape126-151" v:mID="126" v:groupContext="shape" transform="translate(1358.09,-118.341)">
			<title>工作表.126</title>
			<desc>Tile4</desc>
			<v:textBlock v:margins="rect(4,4,4,4)" v:tabSpace="42.5197"/>
			<v:textRect cx="300.548" cy="862.212" width="601.1" height="248.889"/>
			<rect x="0" y="737.767" width="601.096" height="248.889" class="st8"/>
			<text x="123.55" y="907.21" class="st12" v:langID="2052"><v:paragraph v:horizAlign="1"/><v:tabList/>Tile4</text>		</g>
		<g id="group128-154" transform="translate(516.556,-47.0363)" v:mID="128" v:groupContext="group">
			<title>工作表.128</title>
			<g id="shape87-155" v:mID="87" v:groupContext="shape" transform="translate(1000.4,1058.02) rotate(170)">
				<title>圆形.87</title>
				<v:userDefs>
					<v:ud v:nameU="visVersion" v:val="VT0(15):26"/>
				</v:userDefs>
				<path d="M0 880.88 A205.204 105.774 0 0 1 410.41 880.88 A205.204 105.774 0 0 1 0 880.88 Z" class="st13"/>
			</g>
			<g id="shape94-157" v:mID="94" v:groupContext="shape" transform="translate(1010.54,1511.56) rotate(170)">
				<title>圆形.94</title>
				<v:userDefs>
					<v:ud v:nameU="visVersion" v:val="VT0(15):26"/>
				</v:userDefs>
				<path d="M0 880.88 A205.204 105.774 0 0 1 410.41 880.88 A205.204 105.774 0 0 1 0 880.88 Z" class="st14"/>
			</g>
			<g id="group99-159" transform="translate(1170.24,-150.101) rotate(67)" v:mID="99" v:groupContext="group">
				<title>工作表.99</title>
				<g id="shape78-160" v:mID="78" v:groupContext="shape" transform="translate(460.432,-98.8068) rotate(30)">
					<title>圆形</title>
					<v:userDefs>
						<v:ud v:nameU="visVersion" v:val="VT0(15):26"/>
					</v:userDefs>
					<path d="M0 910.37 A157.066 76.2855 0 1 1 314.13 910.37 A157.066 76.2855 0 1 1 0 910.37 Z" class="st15"/>
				</g>
				<g id="shape79-162" v:mID="79" v:groupContext="shape" transform="translate(609.34,19.6175) rotate(30)">
					<title>圆形.79</title>
					<v:userDefs>
						<v:ud v:nameU="visVersion" v:val="VT0(15):26"/>
					</v:userDefs>
					<path d="M0 950.69 A65.194 35.9634 0 0 1 130.39 950.69 A65.194 35.9634 0 1 1 0 950.69 Z" class="st16"/>
				</g>
				<g id="shape80-164" v:mID="80" v:groupContext="shape" transform="translate(656.328,1498.56) rotate(170)">
					<title>圆形.80</title>
					<v:userDefs>
						<v:ud v:nameU="visVersion" v:val="VT0(15):26"/>
					</v:userDefs>
					<path d="M0 880.88 A205.204 105.774 0 0 1 410.41 880.88 A205.204 105.774 0 1 1 0 880.88 Z" class="st17"/>
				</g>
				<g id="shape81-166" v:mID="81" v:groupContext="shape" transform="translate(1225.42,284.723) rotate(70)">
					<title>圆形.81</title>
					<v:userDefs>
						<v:ud v:nameU="visVersion" v:val="VT0(15):26"/>
					</v:userDefs>
					<path d="M0 949.28 A148.54 37.3777 0 0 1 297.08 949.28 A148.54 37.3777 0 1 1 0 949.28 Z" class="st18"/>
				</g>
				<g id="shape82-168" v:mID="82" v:groupContext="shape" transform="translate(15.0336,-79.4134) rotate(-10)">
					<title>圆形.82</title>
					<v:userDefs>
						<v:ud v:nameU="visVersion" v:val="VT0(15):26"/>
					</v:userDefs>
					<path d="M0 886.01 A145.834 100.65 0 0 1 291.67 886.01 A145.834 100.65 0 1 1 0 886.01 Z" class="st19"/>
				</g>
				<g id="shape83-170" v:mID="83" v:groupContext="shape" transform="translate(45.0928,-16.7745) rotate(-10)">
					<title>圆形.83</title>
					<v:userDefs>
						<v:ud v:nameU="visVersion" v:val="VT0(15):26"/>
					</v:userDefs>
					<path d="M0 923.24 A97.3447 63.4132 0 0 1 194.69 923.24 A97.3447 63.4132 0 1 1 0 923.24 Z" class="st20"/>
				</g>
				<g id="shape84-172" v:mID="84" v:groupContext="shape" transform="translate(-321.521,349.7) rotate(-45)">
					<title>圆形.84</title>
					<v:userDefs>
						<v:ud v:nameU="visVersion" v:val="VT0(15):26"/>
					</v:userDefs>
					<path d="M0 877.46 A243.842 109.199 0 0 1 487.68 877.46 A243.842 109.199 0 1 1 0 877.46 Z" class="st21"/>
				</g>
			</g>
			<g id="group108-174" transform="translate(203.468,1604.14) rotate(-155.9)" v:mID="108" v:groupContext="group">
				<title>工作表.108</title>
				<g id="shape109-175" v:mID="109" v:groupContext="shape" transform="translate(460.432,-98.8068) rotate(30)">
					<title>圆形</title>
					<v:userDefs>
						<v:ud v:nameU="visVersion" v:val="VT0(15):26"/>
					</v:userDefs>
					<path d="M0 910.37 A157.066 76.2855 0 1 1 314.13 910.37 A157.066 76.2855 0 1 1 0 910.37 Z" class="st15"/>
				</g>
				<g id="shape110-177" v:mID="110" v:groupContext="shape" transform="translate(609.34,19.6175) rotate(30)">
					<title>圆形.79</title>
					<v:userDefs>
						<v:ud v:nameU="visVersion" v:val="VT0(15):26"/>
					</v:userDefs>
					<path d="M0 950.69 A65.194 35.9634 0 0 1 130.39 950.69 A65.194 35.9634 0 1 1 0 950.69 Z" class="st16"/>
				</g>
				<g id="shape111-179" v:mID="111" v:groupContext="shape" transform="translate(656.328,1498.56) rotate(170)">
					<title>圆形.80</title>
					<v:userDefs>
						<v:ud v:nameU="visVersion" v:val="VT0(15):26"/>
					</v:userDefs>
					<path d="M0 880.88 A205.204 105.774 0 0 1 410.41 880.88 A205.204 105.774 0 1 1 0 880.88 Z" class="st17"/>
				</g>
				<g id="shape112-181" v:mID="112" v:groupContext="shape" transform="translate(1225.42,284.723) rotate(70)">
					<title>圆形.81</title>
					<v:userDefs>
						<v:ud v:nameU="visVersion" v:val="VT0(15):26"/>
					</v:userDefs>
					<path d="M0 949.28 A148.54 37.3777 0 0 1 297.08 949.28 A148.54 37.3777 0 1 1 0 949.28 Z" class="st18"/>
				</g>
				<g id="shape113-183" v:mID="113" v:groupContext="shape" transform="translate(15.0336,-79.4134) rotate(-10)">
					<title>圆形.82</title>
					<v:userDefs>
						<v:ud v:nameU="visVersion" v:val="VT0(15):26"/>
					</v:userDefs>
					<path d="M0 886.01 A145.834 100.65 0 0 1 291.67 886.01 A145.834 100.65 0 1 1 0 886.01 Z" class="st19"/>
				</g>
				<g id="shape114-185" v:mID="114" v:groupContext="shape" transform="translate(45.0928,-16.7745) rotate(-10)">
					<title>圆形.83</title>
					<v:userDefs>
						<v:ud v:nameU="visVersion" v:val="VT0(15):26"/>
					</v:userDefs>
					<path d="M0 923.24 A97.3447 63.4132 0 0 1 194.69 923.24 A97.3447 63.4132 0 1 1 0 923.24 Z" class="st20"/>
				</g>
			</g>
			<g id="group127-187" transform="translate(22.3696,-33.4167)" v:mID="127" v:groupContext="group">
				<title>工作表.127</title>
				<g id="shape85-188" v:mID="85" v:groupContext="shape" transform="translate(762.421,-292.262) rotate(30)">
					<title>圆形.85</title>
					<v:userDefs>
						<v:ud v:nameU="visVersion" v:val="VT0(15):26"/>
					</v:userDefs>
					<path d="M0 910.37 A157.066 76.2855 0 1 1 314.13 910.37 A157.066 76.2855 0 1 1 0 910.37 Z" class="st15"/>
				</g>
				<g id="shape86-190" v:mID="86" v:groupContext="shape" transform="translate(1016.61,-496.408) rotate(30)">
					<title>圆形.86</title>
					<v:userDefs>
						<v:ud v:nameU="visVersion" v:val="VT0(15):26"/>
					</v:userDefs>
					<path d="M0 950.69 A65.194 35.9634 0 0 1 130.39 950.69 A65.194 35.9634 0 0 1 0 950.69 Z" class="st16"/>
				</g>
				<g id="shape88-192" v:mID="88" v:groupContext="shape" transform="translate(1115.93,278.934) rotate(70)">
					<title>圆形.88</title>
					<v:userDefs>
						<v:ud v:nameU="visVersion" v:val="VT0(15):26"/>
					</v:userDefs>
					<path d="M0 949.28 A148.54 37.3777 0 0 1 297.08 949.28 A148.54 37.3777 0 0 1 0 949.28 Z" class="st18"/>
				</g>
				<g id="shape89-194" v:mID="89" v:groupContext="shape" transform="translate(286.452,-159.161) rotate(-10)">
					<title>圆形.89</title>
					<v:userDefs>
						<v:ud v:nameU="visVersion" v:val="VT0(15):26"/>
					</v:userDefs>
					<path d="M0 886.01 A145.834 100.65 0 0 1 291.67 886.01 A145.834 100.65 0 1 1 0 886.01 Z" class="st19"/>
				</g>
				<g id="shape90-196" v:mID="90" v:groupContext="shape" transform="translate(174.019,-552.413) rotate(-10)">
					<title>圆形.90</title>
					<v:userDefs>
						<v:ud v:nameU="visVersion" v:val="VT0(15):26"/>
					</v:userDefs>
					<path d="M0 923.24 A97.3447 63.4132 0 1 1 194.69 923.24 A97.3447 63.4132 0 1 1 0 923.24 Z" class="st20"/>
				</g>
				<g id="shape91-198" v:mID="91" v:groupContext="shape" transform="translate(-391.02,325.067) rotate(-45)">
					<title>圆形.91</title>
					<v:userDefs>
						<v:ud v:nameU="visVersion" v:val="VT0(15):26"/>
					</v:userDefs>
					<path d="M0 877.46 A243.842 109.199 0 1 1 487.68 877.46 A243.842 109.199 0 0 1 0 877.46 Z" class="st21"/>
				</g>
				<g id="shape92-200" v:mID="92" v:groupContext="shape" transform="translate(550.479,-19.5568) rotate(30)">
					<title>圆形.92</title>
					<v:userDefs>
						<v:ud v:nameU="visVersion" v:val="VT0(15):26"/>
					</v:userDefs>
					<path d="M0 910.37 A157.066 76.2855 0 1 1 314.13 910.37 A157.066 76.2855 0 1 1 0 910.37 Z" class="st15"/>
				</g>
				<g id="shape93-202" v:mID="93" v:groupContext="shape" transform="translate(941.186,66.0379) rotate(30)">
					<title>圆形.93</title>
					<v:userDefs>
						<v:ud v:nameU="visVersion" v:val="VT0(15):26"/>
					</v:userDefs>
					<path d="M0 950.69 A65.194 35.9634 0 0 1 130.39 950.69 A65.194 35.9634 0 0 1 0 950.69 Z" class="st16"/>
				</g>
				<g id="shape95-204" v:mID="95" v:groupContext="shape" transform="translate(1557.27,331.144) rotate(70)">
					<title>圆形.95</title>
					<v:userDefs>
						<v:ud v:nameU="visVersion" v:val="VT0(15):26"/>
					</v:userDefs>
					<path d="M0 949.28 A148.54 37.3777 0 0 1 297.08 949.28 A148.54 37.3777 0 0 1 0 949.28 Z" class="st18"/>
				</g>
				<g id="shape96-206" v:mID="96" v:groupContext="shape" transform="translate(346.88,-32.9929) rotate(-10)">
					<title>圆形.96</title>
					<v:userDefs>
						<v:ud v:nameU="visVersion" v:val="VT0(15):26"/>
					</v:userDefs>
					<path d="M0 886.01 A145.834 100.65 0 0 1 291.67 886.01 A145.834 100.65 0 1 1 0 886.01 Z" class="st19"/>
				</g>
				<g id="shape97-208" v:mID="97" v:groupContext="shape" transform="translate(376.939,29.646) rotate(-10)">
					<title>圆形.97</title>
					<v:userDefs>
						<v:ud v:nameU="visVersion" v:val="VT0(15):26"/>
					</v:userDefs>
					<path d="M0 923.24 A97.3447 63.4132 0 1 1 194.69 923.24 A97.3447 63.4132 0 1 1 0 923.24 Z" class="st20"/>
				</g>
				<g id="shape98-210" v:mID="98" v:groupContext="shape" transform="translate(-395.412,549.058) rotate(-80)">
					<title>圆形.98</title>
					<v:userDefs>
						<v:ud v:nameU="visVersion" v:val="VT0(15):26"/>
					</v:userDefs>
					<path d="M0 877.46 A243.842 109.199 0 1 1 487.68 877.46 A243.842 109.199 0 0 1 0 877.46 Z" class="st22"/>
				</g>
				<g id="group100-212" transform="translate(-556.602,815.62) rotate(-90)" v:mID="100" v:groupContext="group">
					<title>工作表.100</title>
					<g id="shape101-213" v:mID="101" v:groupContext="shape" transform="translate(460.432,-98.8068) rotate(30)">
						<title>圆形</title>
						<v:userDefs>
							<v:ud v:nameU="visVersion" v:val="VT0(15):26"/>
						</v:userDefs>
						<path d="M0 910.37 A157.066 76.2855 0 1 1 314.13 910.37 A157.066 76.2855 0 1 1 0 910.37 Z" class="st15"/>
					</g>
					<g id="shape102-215" v:mID="102" v:groupContext="shape" transform="translate(609.34,19.6175) rotate(30)">
						<title>圆形.79</title>
						<v:userDefs>
							<v:ud v:nameU="visVersion" v:val="VT0(15):26"/>
						</v:userDefs>
						<path d="M0 950.69 A65.194 35.9634 0 0 1 130.39 950.69 A65.194 35.9634 0 0 1 0 950.69 Z" class="st16"/>
					</g>
					<g id="shape103-217" v:mID="103" v:groupContext="shape" transform="translate(656.328,1498.56) rotate(170)">
						<title>圆形.80</title>
						<v:userDefs>
							<v:ud v:nameU="visVersion" v:val="VT0(15):26"/>
						</v:userDefs>
						<path d="M0 880.88 A205.204 105.774 0 0 1 410.41 880.88 A205.204 105.774 0 0 1 0 880.88 Z" class="st17"/>
					</g>
					<g id="shape104-219" v:mID="104" v:groupContext="shape" transform="translate(1225.42,284.723) rotate(70)">
						<title>圆形.81</title>
						<v:userDefs>
							<v:ud v:nameU="visVersion" v:val="VT0(15):26"/>
						</v:userDefs>
						<path d="M0 949.28 A148.54 37.3777 0 0 1 297.08 949.28 A148.54 37.3777 0 0 1 0 949.28 Z" class="st18"/>
					</g>
					<g id="shape105-221" v:mID="105" v:groupContext="shape" transform="translate(15.0336,-79.4134) rotate(-10)">
						<title>圆形.82</title>
						<v:userDefs>
							<v:ud v:nameU="visVersion" v:val="VT0(15):26"/>
						</v:userDefs>
						<path d="M0 886.01 A145.834 100.65 0 0 1 291.67 886.01 A145.834 100.65 0 1 1 0 886.01 Z" class="st19"/>
					</g>
					<g id="shape106-223" v:mID="106" v:groupContext="shape" transform="translate(45.0928,-16.7745) rotate(-10)">
						<title>圆形.83</title>
						<v:userDefs>
							<v:ud v:nameU="visVersion" v:val="VT0(15):26"/>
						</v:userDefs>
						<path d="M0 923.24 A97.3447 63.4132 0 1 1 194.69 923.24 A97.3447 63.4132 0 1 1 0 923.24 Z" class="st20"/>
					</g>
					<g id="shape107-225" v:mID="107" v:groupContext="shape" transform="translate(-321.521,349.7) rotate(-45)">
						<title>圆形.84</title>
						<v:userDefs>
							<v:ud v:nameU="visVersion" v:val="VT0(15):26"/>
						</v:userDefs>
						<path d="M0 877.46 A243.842 109.199 0 1 1 487.68 877.46 A243.842 109.199 0 0 1 0 877.46 Z" class="st21"/>
					</g>
				</g>
				<g id="shape116-227" v:mID="116" v:groupContext="shape" transform="translate(-101.775,-599.201) rotate(-15)">
					<title>圆形</title>
					<v:userDefs>
						<v:ud v:nameU="visVersion" v:val="VT0(15):26"/>
					</v:userDefs>
					<path d="M0 910.37 A157.066 76.2855 0 1 1 314.13 910.37 A157.066 76.2855 0 1 1 0 910.37 Z" class="st15"/>
				</g>
				<g id="shape117-229" v:mID="117" v:groupContext="shape" transform="translate(982.699,878.11) rotate(105)">
					<title>圆形.79</title>
					<v:userDefs>
						<v:ud v:nameU="visVersion" v:val="VT0(15):26"/>
					</v:userDefs>
					<path d="M0 950.69 A65.194 35.9634 0 0 1 130.39 950.69 A65.194 35.9634 0 1 1 0 950.69 Z" class="st16"/>
				</g>
			</g>
		</g>
	</g>
</svg>
